<svg xmlns="http://www.w3.org/2000/svg" viewBox="0 0 93.5 93.5"><defs><style>.cls-1{fill:#a04e9e;fill-rule:evenodd;}</style></defs><g id="terraad"><path class="cls-1" d="M4.34,25.55A21.22,21.22,0,0,1,25.55,4.34H68A21.22,21.22,0,0,1,89.16,25.55V68A21.22,21.22,0,0,1,68,89.16H25.55A21.22,21.22,0,0,1,4.34,68ZM25.55,12.83A12.71,12.71,0,0,0,12.83,25.55V68A12.71,12.71,0,0,0,25.55,80.67H68A12.71,12.71,0,0,0,80.67,68V25.55A12.71,12.71,0,0,0,68,12.83Zm0,55.12a4.24,4.24,0,0,1,4.24-4.24H63.71a4.24,4.24,0,0,1,0,8.48H29.79A4.24,4.24,0,0,1,25.55,68Zm7.24-41.16a4.24,4.24,0,0,0-6,6l9.72,9.72-9.72,9.72a4.24,4.24,0,0,0,6,6L45.51,45.51a4.25,4.25,0,0,0,0-6Z"/></g></svg>